<svg width="30" height="30" viewBox="0 0 30 30" fill="none" xmlns="http://www.w3.org/2000/svg">
<path d="M0 5C0 2.23858 2.23858 0 5 0H25C27.7614 0 30 2.23858 30 5V25C30 27.7614 27.7614 30 25 30H5C2.23858 30 0 27.7614 0 25V5Z" fill="#FFFDFD"/>
<path fill-rule="evenodd" clip-rule="evenodd" d="M15.9505 3.29073C15.582 3.43891 15.0098 3.89195 14.6794 4.29761C14.3487 4.70295 12.9739 5.56608 11.6238 6.21532C10.2211 6.88984 8.17311 8.26067 6.84526 9.41351C5.56691 10.5231 4.17304 11.5293 3.74777 11.6491C0.786119 12.4831 0.0631604 14.9528 2.3447 16.4408C2.7998 16.7378 3.50562 17.6338 3.91344 18.4321C4.82808 20.2222 6.88271 22.3374 9.04428 23.7139C10.0802 24.3736 10.7984 25.0974 11.0062 25.691C11.628 27.4662 13.2608 27.677 14.8752 26.1905C15.3116 25.7886 16.794 25.0168 18.1695 24.4753C22.2295 22.8767 24.9833 20.5833 26.3143 17.6913C26.6828 16.8904 27.2636 16.2705 27.9424 15.9524C28.8882 15.5094 29.0078 15.305 29.0935 13.987C29.1811 12.6367 29.1005 12.4487 28.1116 11.6977C27.5187 11.2475 26.8859 10.8794 26.7047 10.8794C26.5238 10.8794 25.97 10.3465 25.4743 9.69469C24.1267 7.92326 22.5704 6.5439 21.2079 5.91329C20.5386 5.60399 19.8093 5.01857 19.5868 4.61291C19.1705 3.85373 17.7636 2.96564 17.0333 3.00102C16.8064 3.01208 16.3192 3.14256 15.9505 3.29073ZM18.3901 5.63559C18.7404 6.2267 19.351 6.79127 19.7474 6.89016C20.9626 7.19408 23.0759 8.91213 24.2715 10.5686C24.8964 11.4345 25.5895 12.1432 25.8113 12.1432C26.4156 12.1432 27.8872 13.3883 27.8872 13.8994C27.8872 14.1452 27.3994 14.549 26.8034 14.797C26.0087 15.1275 25.5492 15.6314 25.0804 16.6866C23.3803 20.5122 18.3577 23.7461 13.7733 23.9663C12.9053 24.008 12.0485 23.9234 11.8691 23.778C11.6895 23.6327 10.6375 22.9256 9.53112 22.2066C6.12198 19.9916 4.11464 16.8127 4.5999 14.3974C4.75223 13.6394 4.68717 13.4069 4.32284 13.4069C4.04768 13.4069 3.7665 13.8072 3.65637 14.3547C3.43834 15.4406 2.95182 15.596 2.65762 14.6735C2.37294 13.7813 2.67 13.4622 4.01658 13.2139C4.87029 13.0562 5.83572 12.4026 7.51522 10.8447C9.59523 8.91529 13.6207 6.45638 14.6994 6.45638C14.9051 6.45638 15.39 6.02987 15.7772 5.50858C16.7121 4.24959 17.5938 4.29224 18.3901 5.63559ZM15.6813 10.0413C14.8464 10.6491 15.4881 10.9136 17.2228 10.6769C18.1473 10.5509 18.6836 10.3193 18.6836 10.0466C18.6836 9.47386 16.4662 9.47007 15.6813 10.0413ZM20.4682 14.0814C19.9994 16.414 17.1596 19.0937 15.1564 19.0937C14.0974 19.0937 13.2884 19.3821 13.2884 19.7594C13.2884 20.1432 15.0831 20.1123 16.5639 19.7028C18.8004 19.0845 21.5399 15.8244 21.5399 13.781C21.5399 12.7239 20.6932 12.9614 20.4682 14.0814ZM9.64696 14.6548C9.12743 15.6548 9.0008 16.8822 9.41687 16.8822C9.63807 16.8822 11.0668 14.2757 11.0668 13.8723C11.0668 13.7901 10.8564 13.7228 10.5991 13.7228C10.3417 13.7228 9.91323 14.1424 9.64696 14.6548ZM13.35 25.4774C12.9479 25.8777 12.3363 25.5346 12.3363 24.9088C12.3363 24.5322 12.4655 24.511 13.005 24.7985C13.4598 25.0408 13.5702 25.2582 13.35 25.4774Z" fill="#03B59B"/>
</svg>
